<?xml version="1.0" encoding="UTF-8" standalone="no"?>

<!DOCTYPE svg PUBLIC "-//W3C//DTD SVG 1.1//EN" "http://www.w3.org/Graphics/SVG/1.1/DTD/svg11.dtd">

<svg width="100%" height="100%" viewBox="0 0 468 179" version="1.1" xmlns="http://www.w3.org/2000/svg" xmlns:xlink="http://www.w3.org/1999/xlink" xml:space="preserve" xmlns:serif="http://www.serif.com/" style="fill-rule:evenodd;clip-rule:evenodd;stroke-linejoin:round;stroke-miterlimit:1.41421;">
    <path d="M67.309,77.207C54.193,96.723 41.081,116.239 27.972,135.755C21.845,144.917 25.739,160.219 44.231,161.728L133.466,161.728C146.703,160.245 150.877,148.505 144.007,135.535C134.557,120.934 125.107,106.333 115.658,91.731C115.518,91.579 115.38,91.423 115.241,91.27C114.3,92.654 113.202,93.925 111.969,95.057C112.15,95.261 112.332,95.463 112.521,95.667C120.95,108.496 129.381,121.327 137.815,134.16C144.978,146.833 141.252,157.148 128.408,157.184L48.789,157.184C31.256,157.128 27.777,143.681 34.278,134.356C45.981,117.202 57.682,100.049 69.384,82.899C70.088,81.999 70.784,81.122 71.471,80.268C70.112,79.284 68.853,78.17 67.71,76.942C67.574,77.027 67.441,77.119 67.309,77.207" style="fill:rgb(176,44,44);"/>
    <path d="M86.504,33.749C86.511,33.749 86.517,33.749 86.524,33.749C100.612,33.749 112.204,45.341 112.204,59.429C112.204,60.834 112.089,62.236 111.859,63.622C110.311,62.224 108.567,61.06 106.682,60.166C106.694,59.928 106.7,59.69 106.7,59.448C106.7,59.444 106.7,59.439 106.7,59.435C106.7,48.356 97.583,39.239 86.504,39.239C75.425,39.239 66.309,48.356 66.309,59.435C66.309,66.679 70.206,73.389 76.498,76.978C76.406,77.779 76.359,78.584 76.357,79.391C76.358,80.668 76.474,81.943 76.704,83.199C67.102,79.24 60.804,69.831 60.804,59.444C60.804,45.348 72.403,33.749 86.499,33.749C86.501,33.749 86.502,33.749 86.504,33.749" style="fill:rgb(176,44,44);"/>
    <path d="M97.725,111.283C103.441,119.297 109.161,127.308 114.882,135.317C115.952,137.727 115.288,138.024 113.074,138.03L83.908,138.03C81.588,138.03 81.636,136.565 83.661,133.25C88.348,125.928 93.035,118.606 97.725,111.283M73.346,144.67L116.844,144.67C124.407,144.682 124.465,138.945 120.642,133.586C112.86,121.667 105.078,109.748 97.293,97.83C92.866,100.278 87.483,128.562 70.257,144.67L73.346,144.67Z" style="fill:rgb(176,44,44);"/>
    <path d="M71.971,101.894C63.506,115.095 55.04,128.298 46.574,141.503C40.528,155.507 54.306,164.854 67.71,157.499C76.877,143.287 87.286,127.594 96.459,113.385C96.352,113.431 96.24,113.475 96.134,113.522C94.091,117.787 89.942,120.672 85.232,121.101C79.005,130.449 72.147,140.626 65.923,149.965C57.862,159.339 46.172,151.474 52.623,141.804C58.788,132.253 65.267,121.872 71.441,112.304C70.212,108.919 70.406,105.176 71.977,101.936C71.977,101.921 71.971,101.906 71.971,101.894" style="fill:rgb(176,44,44);"/>
    <path d="M84.043,100.961C84.044,100.961 84.045,100.961 84.045,100.961C87.771,100.961 90.837,104.027 90.837,107.752C90.837,111.478 87.771,114.544 84.045,114.544C80.32,114.544 77.254,111.478 77.254,107.752C77.254,107.752 77.254,107.751 77.254,107.751C77.262,104.029 80.321,100.969 84.043,100.961M84.047,94.351C91.4,94.351 97.45,100.402 97.45,107.755C97.45,115.109 91.399,121.16 84.045,121.16C76.692,121.16 70.641,115.109 70.641,107.755C70.641,107.755 70.641,107.754 70.641,107.754C70.654,100.405 76.698,94.362 84.047,94.351" style="fill:rgb(176,44,44);"/>
    <path d="M99.166,144.213L92.337,144.213C89.911,148.778 90.678,154.874 92.264,156.716L99.313,156.716C98.48,152.595 98.43,148.353 99.166,144.213M101.515,136.185C98.336,131.414 93.608,127.232 87.562,137.756C83.678,146.279 85.515,157.446 86.692,161.333C89.218,166.902 95.851,172.467 99.772,163.256L101.688,163.256C104.448,169.142 110.367,171.938 114.592,161.384C111.338,159.462 108.769,158.538 105.514,156.619C103.608,153.025 103.469,148.841 104.963,144.219C107.868,142.298 109.943,140.378 112.849,138.454C110.099,130.124 105.441,129.736 101.515,136.185" style="fill:rgb(176,44,44);"/>
    <path d="M97.62,63.999C97.621,63.999 97.622,63.999 97.623,63.999C106.067,63.999 113.016,70.947 113.016,79.391C113.016,87.835 106.067,94.784 97.623,94.784C89.179,94.784 82.23,87.835 82.23,79.391C82.23,79.391 82.23,79.391 82.23,79.391C82.246,70.954 89.183,64.016 97.62,63.999M97.62,58.127C109.284,58.127 118.882,67.725 118.882,79.389C118.882,91.054 109.284,100.652 97.62,100.652C85.956,100.652 76.358,91.054 76.357,79.391C76.38,67.735 85.964,58.151 97.62,58.127" style="fill:rgb(176,44,44);"/>
    <path d="M166.658,173.715L166.658,108.622C166.841,97.512 163.448,87.853 148.44,86.196C156.186,68.339 149.493,56.578 134.284,55.146C147.671,22.806 100.001,24.489 86.274,8.708C72.548,24.489 24.881,22.806 38.265,55.146C23.059,56.578 16.363,68.339 24.108,86.196C9.105,87.853 5.714,97.512 5.891,108.622L5.891,173.715L166.658,173.715M172.552,178.068L0,178.068L0,106.427C0.078,97.465 1.5,87.2 16.38,82.832C11.241,66.173 19.38,53.897 31.237,50.113C25.38,13.968 77.024,22.503 83.3,0L89.251,0C95.527,22.503 147.171,13.968 141.317,50.113C153.172,53.898 161.308,66.173 156.168,82.832C171.052,87.2 172.473,97.465 172.552,106.427L172.552,178.068Z" style="fill:rgb(176,44,44);"/>
    <path d="M194.826,49.642L195.17,47.007C198.721,46.319 199.636,45.289 199.636,42.084L199.694,18.039C199.694,15.575 199.294,14.945 197.576,14.945C196.89,14.945 195.63,15.06 195.63,15.06L195.515,14.831L195.915,12.311C195.915,12.311 200.096,12.484 202.27,12.484C204.389,12.484 209.026,12.255 209.026,12.255C216.298,12.255 220.305,15.345 220.305,20.958C220.305,24.737 217.9,27.942 213.663,29.773C219.216,30.976 222.538,34.24 222.538,38.476C222.538,44.429 216.298,49.527 209.083,49.527C206.564,49.527 204.274,48.953 201.355,48.953C199.164,49.015 196.981,49.245 194.826,49.642ZM203.929,31.892L203.703,42.599C203.703,45.519 205.478,46.607 210.228,46.607C214.808,46.607 217.614,43.858 217.614,39.505C217.614,35.385 214.98,32.695 209.884,31.776L203.929,31.892ZM210.286,29.316C213.566,28.405 215.805,25.33 215.667,21.929C215.667,17.005 212.461,14.715 205.59,14.715C204.79,14.715 204.618,15.004 204.56,16.034C204.33,19.754 204.158,24.107 204.044,28.857C204.044,28.857 209.428,29.316 210.286,29.316Z" style="fill:rgb(176,44,44);fill-rule:nonzero;"/>
    <path d="M255.062,43.629C255.062,46.033 255.464,46.663 257.065,46.663C257.983,46.663 259.068,46.549 259.068,46.549L259.243,46.778L258.783,49.067C258.783,49.067 255.062,48.953 252.771,48.953C251.054,48.953 247.047,49.012 247.047,49.012L247.507,46.722C250.366,46.722 250.997,45.862 250.997,42.198L250.997,35.786C250.997,35.786 246.417,35.73 244.412,35.73C242.922,35.73 236.913,36.186 236.913,36.186L236.739,43.629C236.739,46.092 237.142,46.722 238.744,46.722C239.415,46.709 240.084,46.651 240.747,46.549L240.862,46.778L240.463,49.067C240.463,49.067 237.713,48.953 235.998,48.953C233.249,48.953 228.897,49.242 228.781,49.468L229.069,47.122C231.93,46.607 232.675,45.804 232.675,43.284L232.733,25.078C232.733,23.132 232.39,22.674 231.015,22.674C230.444,22.674 229.471,22.732 229.471,22.732L229.3,22.502L229.641,20.329C229.641,20.329 233.134,20.442 234.966,20.442C237.084,20.442 240.519,20.04 240.519,20.04L240.292,22.389C237.657,22.789 237.427,23.248 237.257,26.167L236.969,33.095L244.412,33.151C246.613,33.153 248.812,33.02 250.997,32.751L251.054,25.078C251.054,23.132 250.711,22.674 249.336,22.674C248.766,22.674 247.732,22.732 247.732,22.732L247.62,22.502L247.961,20.329C247.961,20.384 251.285,20.442 252.886,20.442C255.119,20.442 258.841,20.04 258.841,20.04L258.67,22.389C256.321,22.674 255.749,23.188 255.69,24.907C255.349,30.976 255.062,39.62 255.062,43.629Z" style="fill:rgb(176,44,44);fill-rule:nonzero;"/>
    <path d="M291.021,46.778L291.135,47.007L290.849,49.067C290.849,49.067 287.356,48.953 285.64,48.953C283.23,48.966 280.822,49.099 278.426,49.353L278.252,49.067L278.426,47.007C281.631,46.778 282.489,46.434 282.489,45.347C282.472,44.68 282.337,44.02 282.091,43.399L280.716,38.99C279.571,38.935 277.223,38.935 275.963,38.935C274.247,38.935 272.128,39.164 271.038,39.279L269.438,43.514C269.241,44.031 269.106,44.569 269.035,45.118C269.035,46.377 269.839,46.834 271.728,46.834L274.188,46.834L274.362,47.064L274.017,49.242C274.017,49.242 270.523,48.953 267.434,48.953C265.085,48.953 262.165,49.067 262.165,49.067L262.51,46.722C264.169,46.492 265.029,45.747 266,43.399L274.99,20.67L279.056,19.928L279.456,19.983C279.456,19.983 283.465,34.411 286.726,43.629C287.471,45.804 288.444,46.549 291.021,46.778ZM271.957,36.586L275.848,36.586C277.052,36.586 278.942,36.471 280.028,36.359L276.536,25.252L276.137,25.252L271.957,36.586Z" style="fill:rgb(176,44,44);fill-rule:nonzero;"/>
    <path d="M302.419,37.045L302.304,43.17C302.304,46.319 302.649,46.722 305.683,46.778L305.798,46.949L305.339,49.127C305.339,49.067 302.248,49.012 300.072,49.012C297.553,48.953 294.347,49.182 294.347,49.182L294.749,46.834C297.553,46.492 298.238,45.862 298.238,43.284L298.298,25.022C298.298,23.132 297.898,22.674 296.638,22.674C296.009,22.674 295.034,22.732 295.034,22.732L294.864,22.502L295.205,20.329C295.205,20.329 298.814,20.442 300.587,20.442C302.304,20.442 306.712,20.269 306.712,20.269C312.896,20.269 316.618,22.962 316.618,27.483C316.618,31.032 314.155,34.125 309.862,36.015L314.731,43.343C316.56,46.092 317.993,47.122 320.399,47.122L320.624,47.408L320.339,49.182L315.931,49.642C314.271,49.642 312.382,48.093 310.952,45.462L306.143,37.045L302.419,37.045ZM307.171,34.526C307.457,34.411 311.98,33.151 311.98,28.286C311.98,24.564 309.291,22.732 303.794,22.732C303.163,22.732 302.992,22.962 302.992,23.762C302.707,28.113 302.534,31.091 302.534,34.067L307.171,34.526Z" style="fill:rgb(176,44,44);fill-rule:nonzero;"/>
    <path d="M350.286,46.778L350.401,47.007L350.116,49.067C350.116,49.067 346.622,48.953 344.906,48.953C342.496,48.966 340.089,49.099 337.692,49.353L337.519,49.067L337.692,47.007C340.897,46.778 341.758,46.434 341.758,45.347C341.741,44.679 341.605,44.02 341.357,43.399L339.982,38.99C338.837,38.935 336.488,38.935 335.229,38.935C333.513,38.935 331.395,39.164 330.306,39.279L328.703,43.514C328.506,44.031 328.372,44.569 328.302,45.118C328.302,46.377 329.104,46.834 330.993,46.834L333.454,46.834L333.628,47.064L333.283,49.242C333.283,49.242 329.789,48.953 326.699,48.953C324.352,48.953 321.431,49.067 321.431,49.067L321.774,46.722C323.436,46.492 324.294,45.747 325.267,43.399L334.257,20.67L338.322,19.928L338.722,19.983C338.722,19.983 342.731,34.411 345.992,43.629C346.735,45.804 347.712,46.549 350.286,46.778ZM331.223,36.586L335.113,36.586C336.317,36.586 338.207,36.471 339.294,36.359L335.803,25.252L335.401,25.252L331.223,36.586Z" style="fill:rgb(176,44,44);fill-rule:nonzero;"/>
    <path d="M361.915,22.732C355.729,22.962 354.986,22.847 354.187,28.457L351.496,28.627C351.496,28.627 352.066,24.277 352.181,20.329L352.641,19.928L356.706,20.384L371.303,20.384L375.484,19.928L375.941,20.329C376.056,24.334 376.569,28.457 376.569,28.457L373.936,28.627C373.023,22.847 372.336,22.962 366.608,22.732C366.208,26.453 365.863,36.586 365.863,43.629C365.863,45.804 366.608,46.663 368.557,46.663C369.398,46.669 370.239,46.631 371.076,46.549L371.247,46.722L370.847,49.127C370.847,49.127 365.863,48.953 363.634,48.953C361.23,48.953 356.818,49.182 356.818,49.182L357.22,46.893C361.629,46.549 361.915,45.977 361.915,41.684L361.915,22.732Z" style="fill:rgb(176,44,44);fill-rule:nonzero;"/>
    <path d="M388.713,43.629C388.713,46.092 389.114,46.722 390.716,46.722C391.501,46.71 392.286,46.652 393.065,46.549L393.18,46.778L392.78,49.067C392.78,49.067 388.6,48.953 386.421,48.953C384.504,49.002 382.593,49.174 380.698,49.468L380.982,47.122C383.902,46.607 384.648,45.804 384.648,43.284L384.705,25.078C384.705,23.188 384.362,22.674 382.987,22.674C382.302,22.674 381.097,22.732 381.097,22.732L380.982,22.502L381.27,20.329C381.612,20.329 385.107,20.442 387.109,20.442C389.229,20.442 392.835,20.04 392.835,20.04L392.604,22.389C390.03,22.674 389.456,23.189 389.342,24.907C388.999,31.032 388.713,39.62 388.713,43.629Z" style="fill:rgb(176,44,44);fill-rule:nonzero;"/>
    <path d="M409.9,34.641L410.184,34.641L415.109,25.823C415.525,25.167 415.78,24.422 415.853,23.649C415.853,22.904 414.994,22.503 413.046,22.389L412.934,22.218L413.22,20.154C413.564,20.154 416.883,20.442 418.714,20.442C420.604,20.442 423.182,20.269 423.182,20.269L423.353,20.613L423.066,22.559C419.974,23.248 419.402,24.392 416.998,28.342L412.359,36.244C411.443,37.846 411.443,39.335 411.386,43.688C411.33,45.919 411.845,46.663 413.505,46.663C414.419,46.663 415.794,46.549 415.794,46.549L415.909,46.722L415.452,49.127C415.452,49.127 411.215,48.953 409.039,48.953C407.084,49.009 405.135,49.181 403.2,49.468L403.542,47.122C406.976,46.549 407.321,45.689 407.321,42.484L407.321,40.709C407.35,38.97 406.872,37.259 405.946,35.786L401.653,27.542C399.878,24.164 399.361,23.018 395.872,22.618L395.757,22.389L396.099,20.329C396.099,20.329 399.361,20.442 401.482,20.442C404.057,20.442 408.351,20.099 408.351,20.099L408.525,20.442L408.351,22.332C405.717,22.503 404.976,22.847 404.976,23.878C404.976,25.078 409.725,34.296 409.9,34.641Z" style="fill:rgb(176,44,44);fill-rule:nonzero;"/>
    <path d="M451.866,46.778L451.979,47.007L451.695,49.067C451.695,49.067 448.201,48.953 446.485,48.953C444.076,48.966 441.669,49.099 439.272,49.353L439.099,49.067L439.272,47.007C442.477,46.778 443.335,46.434 443.335,45.347C443.319,44.679 443.184,44.02 442.936,43.399L441.561,38.99C440.417,38.935 438.068,38.935 436.809,38.935C435.093,38.935 432.974,39.164 431.885,39.279L430.283,43.514C430.086,44.031 429.951,44.569 429.881,45.118C429.881,46.377 430.685,46.834 432.573,46.834L435.034,46.834L435.208,47.064L434.862,49.242C434.862,49.242 431.368,48.953 428.28,48.953C425.931,48.953 423.011,49.067 423.011,49.067L423.354,46.722C425.015,46.492 425.874,45.747 426.845,43.399L435.838,20.67L439.9,19.928L440.302,19.983C440.302,19.983 444.311,34.411 447.571,43.629C448.316,45.804 449.29,46.549 451.866,46.778ZM432.803,36.586L436.693,36.586C437.897,36.586 439.786,36.471 440.873,36.359L437.382,25.252L436.982,25.252L432.803,36.586Z" style="fill:rgb(176,44,44);fill-rule:nonzero;"/>
    <path d="M195.057,107.989L194.772,107.418C195.229,104.117 195.458,100.789 195.456,97.456L198.034,97.17C198.034,105.414 199.294,107.129 205.478,107.129C210.228,107.129 213.437,104.726 213.437,100.834C213.437,97.111 209.142,95.051 204.733,92.762C200.151,90.357 195.4,87.723 195.4,82.741C195.4,76.73 201.125,72.092 208.568,72.092C211.547,72.072 214.508,72.556 217.325,73.525L217.499,73.866C216.878,77.063 216.457,80.295 216.239,83.544L214.006,83.774L213.663,83.485C213.785,82.498 213.843,81.504 213.836,80.509C213.836,76.501 212.177,75.185 207.023,75.185C202.843,75.185 199.81,77.531 199.81,80.68C199.81,84.115 203.53,86.234 207.593,88.353C212.576,90.928 218.187,93.562 218.187,98.771C218.187,105.299 212.348,109.937 204.044,109.937C200.939,109.977 197.866,109.311 195.057,107.989Z" style="fill:rgb(176,44,44);fill-rule:nonzero;"/>
    <path d="M250.596,107.074L250.711,107.303L250.425,109.364C250.425,109.364 246.932,109.249 245.216,109.249C242.806,109.261 240.398,109.395 238.002,109.649L237.828,109.364L238.002,107.303C241.206,107.074 242.067,106.73 242.067,105.644C242.05,104.975 241.915,104.316 241.666,103.695L240.292,99.286C239.147,99.231 236.798,99.231 235.538,99.231C233.822,99.231 231.704,99.46 230.614,99.575L229.014,103.811C228.816,104.327 228.681,104.865 228.61,105.414C228.61,106.674 229.414,107.129 231.303,107.129L233.765,107.129L233.938,107.359L233.594,109.538C233.594,109.538 230.101,109.249 227.01,109.249C224.661,109.249 221.74,109.364 221.74,109.364L222.086,107.019C223.745,106.789 224.605,106.044 225.576,103.695L234.567,80.966L238.632,80.224L239.032,80.279C239.032,80.279 243.041,94.707 246.302,103.924C247.047,106.1 248.021,106.845 250.596,107.074ZM231.533,96.882L235.424,96.882C236.627,96.882 238.518,96.767 239.603,96.656L236.113,85.548L235.712,85.548L231.533,96.882Z" style="fill:rgb(176,44,44);fill-rule:nonzero;"/>
    <path d="M269.778,110.052C266.744,101.806 263.825,93.906 261.135,87.093L260.846,87.093C260.846,87.093 259.416,104.441 259.416,105.585C259.416,106.559 259.876,106.959 260.905,106.959L262.736,106.959L262.852,107.129L262.451,109.422C262.451,109.422 259.188,109.249 257.583,109.249C256.184,109.28 254.788,109.395 253.403,109.594L253.634,107.245C255.581,107.019 256.323,106.214 256.61,103.869C256.954,101.121 258.616,86.349 258.616,85.033C258.616,83.485 257.526,82.856 254.663,82.685L254.492,82.399L254.894,80.509C254.894,80.509 258.672,80.739 260.217,80.739C261.765,80.739 263.941,80.565 263.941,80.565C267.774,92.588 271.324,101.464 271.324,101.464L271.61,101.464C271.61,101.464 275.104,92.532 279.227,80.68C279.568,80.624 281.802,80.739 283.006,80.739C284.491,80.739 287.984,80.45 287.984,80.45L288.1,80.624L287.814,82.628C285.122,82.914 284.206,83.544 284.206,85.089C284.206,86.578 284.895,96.882 285.41,102.78C285.81,106.159 286.211,106.959 287.701,106.959C288.27,106.959 289.017,106.903 289.017,106.903L289.13,107.074L288.73,109.364C288.73,109.364 285.925,109.249 284.15,109.249C282.262,109.249 278.882,109.594 278.769,109.594L278.997,107.245C280.942,107.019 281.746,106.389 281.746,105.014C281.746,103.41 280.311,87.093 280.311,87.093L280.028,87.093C277.394,93.791 274.418,101.691 271.439,109.708L269.778,110.052Z" style="fill:rgb(176,44,44);fill-rule:nonzero;"/>
    <path d="M320.509,107.074L320.624,107.303L320.339,109.364C320.339,109.364 316.846,109.249 315.13,109.249C312.72,109.261 310.312,109.395 307.916,109.649L307.743,109.364L307.916,107.303C311.122,107.074 311.981,106.73 311.981,105.644C311.963,104.976 311.828,104.316 311.58,103.695L310.207,99.286C309.061,99.231 306.712,99.231 305.452,99.231C303.738,99.231 301.618,99.46 300.528,99.575L298.929,103.811C298.731,104.327 298.595,104.865 298.524,105.414C298.524,106.674 299.327,107.129 301.219,107.129L303.679,107.129L303.851,107.359L303.508,109.538C303.508,109.538 300.015,109.249 296.924,109.249C294.575,109.249 291.656,109.364 291.656,109.364L292,107.019C293.659,106.789 294.52,106.044 295.489,103.695L304.482,80.966L308.546,80.224L308.946,80.279C308.946,80.279 312.954,94.707 316.216,103.924C316.961,106.1 317.935,106.845 320.509,107.074ZM301.447,96.882L305.339,96.882C306.541,96.882 308.431,96.767 309.517,96.656L306.027,85.548L305.626,85.548L301.447,96.882Z" style="fill:rgb(176,44,44);fill-rule:nonzero;"/>
    <path d="M327.274,85.375C327.274,83.429 326.929,83.029 325.554,83.029C324.984,83.029 323.436,83.144 323.436,83.144L323.265,82.914L323.609,80.739L328.875,80.739C331.223,80.739 334.772,80.336 334.772,80.336L334.543,82.685C332.368,83.029 332.023,83.37 331.908,85.204C331.738,89.212 331.337,100.261 331.337,104.27C331.279,110.279 328.818,113.772 323.207,115.832L322.291,114.232L322.405,113.832C326.185,111.539 327.214,109.422 327.214,103.984L327.274,85.375Z" style="fill:rgb(176,44,44);fill-rule:nonzero;"/>
    <path d="M352.582,107.989L352.296,107.418C352.754,104.118 352.983,100.789 352.982,97.456L355.559,97.17C355.559,105.414 356.818,107.129 363.003,107.129C367.753,107.129 370.962,104.726 370.962,100.834C370.962,97.111 366.667,95.051 362.259,92.762C357.676,90.357 352.927,87.723 352.927,82.741C352.927,76.73 358.649,72.092 366.094,72.092C369.073,72.072 372.034,72.556 374.852,73.525L375.025,73.866C374.404,77.063 373.983,80.295 373.766,83.544L371.532,83.774L371.188,83.485C371.311,82.498 371.369,81.504 371.362,80.509C371.362,76.501 369.702,75.185 364.548,75.185C360.368,75.185 357.335,77.531 357.335,80.68C357.335,84.115 361.056,86.234 365.119,88.353C370.103,90.928 375.712,93.562 375.712,98.771C375.712,105.299 369.873,109.937 361.57,109.937C358.465,109.977 355.392,109.311 352.582,107.989Z" style="fill:rgb(176,44,44);fill-rule:nonzero;"/>
    <path d="M393.924,106.789C400.967,106.789 401.825,106.214 402.571,101.405L405.087,101.176L405.316,101.464C404.756,104.035 404.335,106.633 404.057,109.249L403.716,109.538C403.716,109.538 394.21,109.249 389.4,109.249C387.083,109.256 384.769,109.409 382.472,109.709L382.761,107.303C385.566,106.959 386.366,106.1 386.366,103.524L386.425,85.375C386.425,83.429 386.08,82.969 384.705,82.969C384.191,82.969 383.16,83.029 383.16,83.029L383.047,82.799L383.391,80.624C383.391,80.624 387.454,80.739 390.431,80.739C395.151,80.828 399.872,80.656 404.573,80.224L404.746,80.509C404.209,83.039 403.845,85.603 403.657,88.182L400.907,88.409C400.907,88.409 401.023,87.149 401.023,86.52C401.023,83.714 400.45,83.429 394.152,83.429C391.29,83.429 391.119,83.544 391.06,85.089L390.718,93.218C391.691,93.218 394.04,93.276 395.413,93.276C397.073,93.276 401.081,92.817 401.081,92.817L401.312,93.103L400.621,96.082C400.621,96.082 396.672,95.967 394.21,95.967C393.003,95.978 391.798,96.074 390.605,96.253C390.431,100.605 390.431,102.665 390.431,104.096C390.431,106.503 390.718,106.789 393.924,106.789Z" style="fill:rgb(176,44,44);fill-rule:nonzero;"/>
    <path d="M408.813,82.969L408.699,82.799L409.042,80.624C409.042,80.624 412.877,80.739 414.593,80.739C417.343,80.739 421.866,80.279 421.866,80.279L422.037,80.624L421.866,82.685C418.547,82.914 417.802,83.199 417.802,84.459C417.802,85.948 423.297,104.441 423.297,104.441L423.811,104.441C425.931,99.345 431.141,85.89 431.141,84.518C431.141,83.315 430.283,82.856 428.106,82.856L425.815,82.856L425.7,82.628L425.989,80.45C425.989,80.45 429.652,80.739 432.743,80.739C435.034,80.739 438.013,80.624 438.013,80.624L437.612,82.969C435.778,83.084 435.321,83.485 434.633,85.204L424.958,109.019L420.721,109.994C420.721,109.994 416.542,96.196 412.934,85.604C412.362,83.888 411.104,83.085 408.813,82.969Z" style="fill:rgb(176,44,44);fill-rule:nonzero;"/>
    <path d="M467.274,107.074L467.388,107.303L467.103,109.364C467.103,109.364 463.608,109.249 461.892,109.249C459.482,109.261 457.075,109.395 454.679,109.649L454.505,109.364L454.679,107.303C457.884,107.074 458.744,106.73 458.744,105.644C458.727,104.975 458.591,104.316 458.343,103.695L456.968,99.286C455.824,99.231 453.476,99.231 452.216,99.231C450.5,99.231 448.38,99.46 447.29,99.575L445.689,103.811C445.493,104.328 445.358,104.866 445.287,105.414C445.287,106.674 446.091,107.129 447.98,107.129L450.441,107.129L450.615,107.359L450.27,109.538C450.27,109.538 446.776,109.249 443.686,109.249C441.338,109.249 438.419,109.364 438.419,109.364L438.762,107.019C440.423,106.789 441.281,106.044 442.253,103.695L451.245,80.966L455.31,80.224L455.709,80.279C455.709,80.279 459.718,94.707 462.978,103.924C463.723,106.1 464.696,106.845 467.274,107.074ZM448.209,96.882L452.101,96.882C453.306,96.882 455.194,96.767 456.28,96.656L452.79,85.548L452.389,85.548L448.209,96.882Z" style="fill:rgb(176,44,44);fill-rule:nonzero;"/>
    <path d="M199.694,138.63C199.694,136.17 199.294,135.54 197.576,135.54C196.89,135.54 195.63,135.655 195.63,135.655L195.515,135.425L195.915,132.906C195.915,132.906 200.096,133.076 202.27,133.076C204.319,133.018 206.365,132.846 208.396,132.562L208.168,135.137C205.304,135.596 204.444,136.397 204.389,138.574L203.703,163.135C203.588,166.226 204.218,167.029 206.22,167.029C207.081,167.014 207.941,166.956 208.797,166.856L208.912,167.085L208.396,169.719C208.396,169.719 203.874,169.548 201.355,169.548C198.49,169.548 194.772,169.604 194.772,169.604L195.341,167.029C198.892,166.684 199.636,165.939 199.636,162.676L199.694,138.63ZM205.418,150.712L215.667,140.061C216.87,138.86 217.441,137.886 217.441,137.086C217.441,136.111 216.298,135.54 213.836,135.367L213.721,135.137L214.121,132.676C214.121,132.676 218.302,133.076 220.42,133.076C222.653,133.076 225.69,132.848 225.69,132.848L225.915,133.248L225.515,135.596C223.511,135.997 222.364,136.856 218.93,140.405L209.713,150.082L219.331,162.621C222.081,166.169 223.97,167.485 226.659,167.485L226.889,167.714L226.544,169.663C226.544,169.663 222.424,170.349 221.795,170.349C219.904,170.349 217.614,168.518 215.381,165.424L205.362,151.512L205.418,150.712Z" style="fill:rgb(176,44,44);fill-rule:nonzero;"/>
    <path d="M242.007,167.085C249.05,167.085 249.91,166.514 250.654,161.705L253.171,161.475L253.4,161.761C252.84,164.332 252.42,166.931 252.142,169.548L251.8,169.834C251.8,169.834 242.293,169.548 237.485,169.548C235.168,169.555 232.854,169.707 230.556,170.004L230.844,167.6C233.649,167.259 234.449,166.399 234.449,163.821L234.509,145.674C234.509,143.725 234.164,143.269 232.79,143.269C232.274,143.269 231.245,143.325 231.245,143.325L231.13,143.095L231.474,140.92C231.474,140.92 235.538,141.035 238.514,141.035C243.233,141.126 247.955,140.954 252.655,140.52L252.829,140.806C252.292,143.335 251.928,145.899 251.74,148.478L248.991,148.708C248.991,148.708 249.106,147.448 249.106,146.818C249.106,144.014 248.535,143.725 242.237,143.725C239.374,143.725 239.203,143.84 239.144,145.388L238.802,153.517C239.773,153.517 242.122,153.573 243.497,153.573C245.158,153.573 249.165,153.117 249.165,153.117L249.395,153.401L248.705,156.38C248.705,156.38 244.757,156.266 242.293,156.266C241.086,156.277 239.881,156.373 238.686,156.551C238.514,160.901 238.514,162.964 238.514,164.394C238.514,166.799 238.802,167.085 242.007,167.085Z" style="fill:rgb(176,44,44);fill-rule:nonzero;"/>
    <path d="M283.006,161.761L282.949,145.214C282.949,143.898 282.435,143.325 281.404,143.325L279.686,143.325L279.571,143.095L279.971,140.865C279.971,140.865 283.12,141.035 284.839,141.035C286.844,141.035 289.704,140.691 289.704,140.691L289.479,143.039C287.3,143.325 286.384,144.128 286.329,145.903L285.64,170.52L283.409,171.149C274.707,158.382 266.863,148.078 266.863,148.078L266.573,148.078L266.403,165.424C266.403,166.856 266.803,167.315 267.893,167.315C268.408,167.315 270.183,167.259 270.183,167.259L270.353,167.429L269.897,169.719C269.897,169.719 266.689,169.548 264.685,169.548C263.097,169.579 261.512,169.693 259.936,169.889L260.219,167.545C262.109,167.315 263.024,166.569 263.084,164.739L263.714,145.844C263.714,143.955 262.796,143.384 259.705,143.039L259.476,142.754L259.876,140.806C259.876,140.806 262.681,141.035 264.229,141.035C265.89,141.035 267.72,140.865 267.72,140.865C275.106,151.742 282.72,161.761 282.72,161.761L283.006,161.761Z" style="fill:rgb(176,44,44);fill-rule:nonzero;"/>
    <path d="M300.417,169.548C298.557,169.596 296.702,169.768 294.864,170.063L295.149,167.659C297.954,167.199 298.698,166.34 298.698,163.879L298.759,145.674C298.759,143.784 298.414,143.269 297.098,143.269C296.524,143.269 295.493,143.384 295.493,143.384L295.378,143.095L295.723,140.92C295.723,140.92 299.1,141.035 300.876,141.035C303.052,141.035 308.09,140.865 308.09,140.865C317.363,140.865 323.488,146.13 323.488,154.203C323.488,163.249 316.448,170.063 307.232,170.063C307.232,170.063 302.877,169.548 300.417,169.548ZM303.452,144.585C303.052,153.976 302.762,160.845 302.762,163.48C302.762,166.514 303.851,167.315 308.205,167.315C314.615,167.315 318.452,162.905 318.452,155.347C318.452,147.619 313.755,143.554 305.056,143.554C303.796,143.554 303.508,143.784 303.452,144.585Z" style="fill:rgb(176,44,44);fill-rule:nonzero;"/>
    <path d="M337.003,157.64L336.89,163.765C336.89,166.915 337.233,167.315 340.268,167.373L340.382,167.545L339.923,169.719C339.923,169.663 336.832,169.605 334.657,169.605C332.138,169.548 328.931,169.778 328.931,169.778L329.334,167.429C332.138,167.085 332.825,166.455 332.825,163.879L332.882,145.614C332.882,143.725 332.482,143.269 331.223,143.269C330.594,143.269 329.618,143.325 329.618,143.325L329.448,143.095L329.789,140.92C329.789,140.92 333.398,141.035 335.174,141.035C336.89,141.035 341.298,140.865 341.298,140.865C347.482,140.865 351.205,143.554 351.205,148.078C351.205,151.627 348.741,154.718 344.446,156.606L349.315,163.936C351.146,166.684 352.579,167.714 354.983,167.714L355.21,168.003L354.925,169.778L350.515,170.234C348.857,170.234 346.966,168.689 345.536,166.054L340.727,157.64L337.003,157.64ZM341.758,155.121C342.041,155.006 346.564,153.747 346.564,148.879C346.564,145.158 343.876,143.325 338.378,143.325C337.748,143.325 337.577,143.554 337.577,144.354C337.292,148.708 337.118,151.684 337.118,154.661L341.758,155.121Z" style="fill:rgb(176,44,44);fill-rule:nonzero;"/>
    <path d="M384.87,167.373L384.985,167.6L384.7,169.663C384.7,169.663 381.206,169.548 379.49,169.548C377.08,169.56 374.673,169.694 372.276,169.948L372.103,169.663L372.276,167.6C375.482,167.373 376.342,167.029 376.342,165.94C376.325,165.272 376.189,164.614 375.941,163.994L374.567,159.586C373.421,159.526 371.072,159.526 369.813,159.526C368.097,159.526 365.979,159.756 364.89,159.871L363.288,164.109C363.091,164.625 362.956,165.162 362.886,165.71C362.886,166.97 363.688,167.429 365.577,167.429L368.039,167.429L368.212,167.659L367.868,169.834C367.868,169.834 364.376,169.548 361.284,169.548C358.936,169.548 356.015,169.663 356.015,169.663L356.361,167.314C358.02,167.085 358.88,166.34 359.851,163.994L368.843,141.265L372.907,140.52L373.308,140.576C373.308,140.576 377.315,155.006 380.577,164.224C381.321,166.399 382.296,167.144 384.87,167.373ZM365.808,157.181L369.698,157.181C370.902,157.181 372.792,157.066 373.878,156.952L370.388,145.844L369.987,145.844L365.808,157.181Z" style="fill:rgb(176,44,44);fill-rule:nonzero;"/>
</svg>
